<?xml version="1.0" encoding="UTF-8" standalone="no"?>
<!-- Created with Inkscape (http://www.inkscape.org/) -->

<svg
   xmlns:dc="http://purl.org/dc/elements/1.1/"
   xmlns:cc="http://creativecommons.org/ns#"
   xmlns:rdf="http://www.w3.org/1999/02/22-rdf-syntax-ns#"
   xmlns:svg="http://www.w3.org/2000/svg"
   xmlns="http://www.w3.org/2000/svg"
   xmlns:sodipodi="http://sodipodi.sourceforge.net/DTD/sodipodi-0.dtd"
   xmlns:inkscape="http://www.inkscape.org/namespaces/inkscape"
   width="13mm"
   height="26mm"
   viewBox="0 0 46.062992 92.125984"
   id="svg13176"
   version="1.1"
   inkscape:version="0.91 r"
   sodipodi:docname="logo-etiqueta-producto.svg"
   inkscape:export-filename="/home/jcamacho/workspace/odoo/addons/custom/raya_customize/static/src/img/logo-etiqueta-producto.png"
   inkscape:export-xdpi="299.91537"
   inkscape:export-ydpi="299.91537">
  <defs
     id="defs13178" />
  <sodipodi:namedview
     id="base"
     pagecolor="#ffffff"
     bordercolor="#666666"
     borderopacity="1.0"
     inkscape:pageopacity="0.0"
     inkscape:pageshadow="2"
     inkscape:zoom="5.6"
     inkscape:cx="-15.936606"
     inkscape:cy="27.204518"
     inkscape:document-units="px"
     inkscape:current-layer="layer1"
     showgrid="false"
     inkscape:window-width="1920"
     inkscape:window-height="1056"
     inkscape:window-x="1366"
     inkscape:window-y="24"
     inkscape:window-maximized="1" />
  <metadata
     id="metadata13181">
    <rdf:RDF>
      <cc:Work
         rdf:about="">
        <dc:format>image/svg+xml</dc:format>
        <dc:type
           rdf:resource="http://purl.org/dc/dcmitype/StillImage" />
        <dc:title></dc:title>
      </cc:Work>
    </rdf:RDF>
  </metadata>
  <g
     inkscape:label="Capa 1"
     inkscape:groupmode="layer"
     id="layer1"
     transform="translate(0,-960.23621)">
    <g
       transform="matrix(2.4103044,0,0,-2.4103044,-160.9097,2552.2835)"
       id="g13149"
       inkscape:export-xdpi="300.56665"
       inkscape:export-ydpi="300.56665">
      <g
         transform="translate(79.001,630.07)"
         id="g428">
        <path
           inkscape:connector-curvature="0"
           id="path430"
           style="fill:#000000;fill-opacity:1;fill-rule:nonzero;stroke:none"
           d="m 0,0 0,2.513 -3.244,0 c -0.197,0 -0.413,0.019 -0.648,0.058 -0.235,0.039 -0.451,0.13 -0.647,0.276 -0.214,0.162 -0.349,0.352 -0.404,0.57 -0.056,0.218 -0.084,0.451 -0.084,0.699 l 0,0.872 -1.769,0 0,-1.667 c 0,-0.171 0.004,-0.361 0.012,-0.57 0.009,-0.21 0.035,-0.428 0.078,-0.655 C -6.664,1.87 -6.6,1.645 -6.514,1.423 -6.429,1.201 -6.309,0.996 -6.155,0.808 -6.001,0.62 -5.83,0.472 -5.642,0.365 -5.454,0.258 -5.26,0.177 -5.059,0.122 -4.858,0.066 -4.661,0.032 -4.469,0.019 -4.277,0.006 -4.099,0 -3.937,0 L 0,0 Z m -6.796,5.681 1.693,0 0,3.411 c 0,0.128 0.012,0.265 0.038,0.41 0.026,0.145 0.102,0.265 0.231,0.359 0.077,0.06 0.156,0.097 0.237,0.109 0.081,0.013 0.152,0.019 0.212,0.019 l 0.102,0 0,-2.975 c 0,-0.196 0.013,-0.399 0.039,-0.609 0.025,-0.209 0.111,-0.408 0.256,-0.596 0.103,-0.137 0.222,-0.244 0.359,-0.321 0.137,-0.076 0.282,-0.134 0.436,-0.173 0.154,-0.038 0.31,-0.064 0.468,-0.077 0.158,-0.012 0.31,-0.019 0.455,-0.019 0.137,0 0.291,0.004 0.462,0.013 0.171,0.008 0.344,0.03 0.519,0.064 0.176,0.034 0.345,0.09 0.507,0.167 0.162,0.077 0.303,0.179 0.423,0.307 0.171,0.18 0.274,0.379 0.308,0.597 C -0.017,6.585 0,6.801 0,7.014 l 0,4.001 c 0,0.197 -0.017,0.398 -0.051,0.603 -0.034,0.205 -0.137,0.389 -0.308,0.551 -0.162,0.154 -0.34,0.248 -0.532,0.282 -0.192,0.035 -0.378,0.052 -0.558,0.052 l -2.847,0 c -0.137,0 -0.288,-0.006 -0.455,-0.019 -0.167,-0.013 -0.333,-0.043 -0.5,-0.09 -0.167,-0.047 -0.334,-0.113 -0.5,-0.199 C -5.918,12.11 -6.07,11.999 -6.206,11.862 -6.352,11.716 -6.487,11.505 -6.61,11.227 -6.734,10.949 -6.796,10.601 -6.796,10.182 l 0,-4.501 z m 4.129,4.308 0.423,0 c 0.06,0 0.12,-0.006 0.18,-0.019 0.059,-0.012 0.111,-0.049 0.153,-0.109 0.034,-0.043 0.058,-0.098 0.071,-0.167 0.013,-0.068 0.019,-0.136 0.019,-0.205 l 0,-1.308 C -1.821,8.122 -1.829,8.059 -1.846,7.995 -1.863,7.931 -1.894,7.878 -1.936,7.835 -1.979,7.792 -2.026,7.765 -2.077,7.752 -2.129,7.739 -2.18,7.733 -2.231,7.733 c -0.06,0 -0.118,0.006 -0.173,0.019 -0.056,0.013 -0.105,0.04 -0.148,0.083 -0.051,0.06 -0.083,0.126 -0.096,0.199 -0.013,0.073 -0.019,0.13 -0.019,0.173 l 0,1.782" />
      </g>
      <g
         transform="translate(72.165,651.446)"
         id="g432">
        <path
           inkscape:connector-curvature="0"
           id="path434"
           style="fill:#000000;fill-opacity:1;fill-rule:nonzero;stroke:none"
           d="m 0,0 1.703,0 0,3.433 c 0,0.129 0.013,0.267 0.039,0.413 0.026,0.146 0.103,0.267 0.232,0.361 0.078,0.06 0.157,0.097 0.239,0.11 0.082,0.013 0.153,0.019 0.213,0.019 l 0.103,0 0,-2.994 C 2.529,1.144 2.542,0.94 2.568,0.729 2.594,0.518 2.68,0.318 2.826,0.129 2.929,-0.008 3.05,-0.116 3.187,-0.194 c 0.138,-0.077 0.284,-0.135 0.439,-0.174 0.155,-0.038 0.312,-0.064 0.471,-0.077 0.159,-0.013 0.312,-0.02 0.458,-0.02 0.138,0 0.293,0.005 0.465,0.014 0.172,0.008 0.346,0.029 0.523,0.064 0.176,0.034 0.346,0.09 0.509,0.168 0.164,0.077 0.306,0.18 0.426,0.31 0.172,0.18 0.276,0.38 0.31,0.6 0.034,0.219 0.051,0.436 0.051,0.651 l 0,4.027 c 0,0.197 -0.017,0.4 -0.051,0.606 C 6.754,6.182 6.65,6.367 6.478,6.53 6.315,6.685 6.136,6.779 5.943,6.814 5.749,6.848 5.562,6.866 5.381,6.866 l -2.865,0 C 2.379,6.866 2.226,6.859 2.058,6.846 1.89,6.833 1.723,6.803 1.555,6.756 1.387,6.709 1.219,6.642 1.052,6.556 0.884,6.47 0.731,6.358 0.594,6.22 0.447,6.074 0.312,5.861 0.187,5.581 0.062,5.302 0,4.951 0,4.53 L 0,0 Z m 4.155,4.336 0.426,0 C 4.641,4.336 4.702,4.33 4.762,4.317 4.822,4.304 4.874,4.267 4.917,4.207 4.951,4.164 4.975,4.108 4.988,4.039 5.001,3.971 5.007,3.902 5.007,3.833 l 0,-1.316 C 5.007,2.456 4.998,2.394 4.981,2.329 4.964,2.265 4.934,2.211 4.891,2.168 4.848,2.125 4.8,2.097 4.749,2.084 4.697,2.071 4.646,2.065 4.594,2.065 4.534,2.065 4.476,2.071 4.42,2.084 4.364,2.097 4.314,2.125 4.271,2.168 4.22,2.228 4.187,2.295 4.175,2.368 4.162,2.441 4.155,2.499 4.155,2.542 l 0,1.794" />
      </g>
      <g
         transform="translate(67.373,631.692)"
         id="g436">
        <path
           inkscape:connector-curvature="0"
           id="path438"
           style="fill:#000000;fill-opacity:1;fill-rule:evenodd;stroke:none"
           d="M 0,0 C 0.663,3.526 2.438,6.483 4.618,8.342 L 4.634,6.847 C 3.47,5.5 2.763,4.223 2.252,1.918 1.741,-0.386 2.204,-2.942 3.353,-4.08 c 1.149,-1.139 2.929,-1.222 4.919,-0.354 1.991,0.869 3.803,2.42 5.097,3.961 1.255,1.494 1.972,2.966 2.002,4.232 0.03,1.266 -0.55,2.217 -1.413,3.202 -0.626,0.713 -1.209,1.345 -2.144,1.86 L 11.809,9.628 C 13.216,8.919 14.18,7.951 15.156,7.064 16.352,5.976 17.239,5.133 17.339,3.783 17.438,2.434 16.581,0.556 14.968,-1.524 13.296,-3.679 10.915,-5.977 8.291,-7.444 5.668,-8.912 3.316,-9.091 1.744,-7.771 0.161,-6.441 -0.663,-3.526 0,0" />
      </g>
      <g
         transform="translate(79.012,643.535)"
         id="g440">
        <path
           inkscape:connector-curvature="0"
           id="path442"
           style="fill:#000000;fill-opacity:1;fill-rule:nonzero;stroke:none"
           d="m 0,0 -1.692,0 0,3.411 c 0,0.128 -0.013,0.265 -0.039,0.411 C -1.756,3.967 -1.833,4.087 -1.962,4.181 -2.039,4.241 -2.118,4.277 -2.199,4.29 -2.28,4.302 -2.35,4.309 -2.41,4.309 l -0.103,0 0,-2.975 c 0,-0.197 -0.013,-0.4 -0.038,-0.609 -0.026,-0.21 -0.112,-0.409 -0.257,-0.597 -0.102,-0.136 -0.222,-0.243 -0.359,-0.32 -0.136,-0.077 -0.282,-0.135 -0.436,-0.173 -0.154,-0.039 -0.31,-0.065 -0.468,-0.078 -0.158,-0.012 -0.31,-0.019 -0.455,-0.019 l -2.269,0 0,1.613 c 0,0.305 0,0.61 0,0.914 l 2.103,0 c 0.499,0.007 0.564,-0.046 0.564,0.461 l 0,1.783 -0.424,0 -0.013,0 0,10e-4 -2.23,0 0,1.025 c 0,0.197 0.017,0.398 0.051,0.602 0.034,0.206 0.137,0.39 0.308,0.552 0.162,0.154 0.34,0.248 0.532,0.282 0.192,0.034 0.378,0.051 0.558,0.051 l 2.846,0 c 0.137,0 0.288,-0.006 0.455,-0.019 0.167,-0.013 0.333,-0.043 0.5,-0.09 C -1.378,6.666 -1.212,6.6 -1.045,6.515 -0.878,6.429 -0.727,6.318 -0.59,6.181 -0.444,6.036 -0.31,5.824 -0.186,5.547 -0.062,5.269 0,4.92 0,4.501 L 0,0" />
      </g>
    </g>
  </g>
</svg>
