<?xml version="1.0" encoding="UTF-8" standalone="no"?>
<!-- Created with Inkscape (http://www.inkscape.org/) -->

<svg
   xmlns:dc="http://purl.org/dc/elements/1.1/"
   xmlns:cc="http://creativecommons.org/ns#"
   xmlns:rdf="http://www.w3.org/1999/02/22-rdf-syntax-ns#"
   xmlns:svg="http://www.w3.org/2000/svg"
   xmlns="http://www.w3.org/2000/svg"
   xmlns:sodipodi="http://sodipodi.sourceforge.net/DTD/sodipodi-0.dtd"
   xmlns:inkscape="http://www.inkscape.org/namespaces/inkscape"
   width="720"
   height="360"
   viewBox="0 0 720.00001 360.00001"
   id="svg12752"
   version="1.1"
   inkscape:version="0.91 r"
   inkscape:export-filename="/home/jcamacho/workspace/odoo/addons/custom/raya_customize/static/description/logo-impresion.png"
   inkscape:export-xdpi="150"
   inkscape:export-ydpi="150"
   sodipodi:docname="logo-impresion.svg">
  <defs
     id="defs12754" />
  <sodipodi:namedview
     id="base"
     pagecolor="#ffffff"
     bordercolor="#666666"
     borderopacity="1.0"
     inkscape:pageopacity="0.0"
     inkscape:pageshadow="2"
     inkscape:zoom="1.4"
     inkscape:cx="374.66635"
     inkscape:cy="127.37776"
     inkscape:document-units="px"
     inkscape:current-layer="layer1"
     showgrid="false"
     units="px"
     inkscape:window-width="1920"
     inkscape:window-height="1056"
     inkscape:window-x="1366"
     inkscape:window-y="24"
     inkscape:window-maximized="1" />
  <metadata
     id="metadata12757">
    <rdf:RDF>
      <cc:Work
         rdf:about="">
        <dc:format>image/svg+xml</dc:format>
        <dc:type
           rdf:resource="http://purl.org/dc/dcmitype/StillImage" />
        <dc:title></dc:title>
      </cc:Work>
    </rdf:RDF>
  </metadata>
  <g
     inkscape:label="Capa 1"
     inkscape:groupmode="layer"
     id="layer1"
     transform="translate(0,-692.36216)">
    <g
       transform="matrix(0.02130843,0,0,0.02130843,-0.0080759,692.93392)"
       style="clip-rule:evenodd;fill-rule:evenodd;image-rendering:optimizeQuality;shape-rendering:geometricPrecision;text-rendering:geometricPrecision"
       id="g21962">
      <path
         style="fill:#004e9e"
         inkscape:connector-curvature="0"
         id="path11-8"
         d="M 3258,396 C 4709,-59 6264,-84 7759,130 c 2512,378 4944,1383 6933,2973 579,465 1119,981 1600,1547 -477,3 -955,14 -1432,13 -402,-326 -804,-657 -1245,-932 -995,-643 -2129,-1036 -3277,-1302 -967,-235 -1976,-305 -2966,-193 -752,86 -1501,270 -2176,622 -564,287 -1046,741 -1336,1306 -395,752 -438,1641 -283,2462 202,1079 693,2081 1272,3006 718,1132 1608,2151 2600,3049 821,736 1719,1405 2734,1848 731,319 1545,505 2342,375 609,-90 1175,-363 1676,-712 467,-326 891,-709 1307,-1097 485,-455 915,-973 1233,-1558 261,2 522,-3 783,-5 -258,505 -563,985 -909,1435 -516,677 -1111,1287 -1681,1919 -422,458 -847,922 -1349,1298 -397,298 -856,526 -1349,610 -615,115 -1247,6 -1835,-184 -676,-220 -1314,-544 -1921,-909 C 7794,15287 7144,14816 6520,14314 5527,13515 4598,12637 3741,11694 2845,10701 2027,9634 1347,8482 698,7378 163,6173 29,4889 -75,3943 98,2940 654,2153 1269,1270 2250,716 3258,396 Z"
         class="fil0" />
      <path
         class="fil0"
         d="m 27212,6439 c -5,-544 -1,-1087 -2,-1630 1477,1 2954,-1 4430,1 553,4 1116,185 1527,565 432,435 609,1065 619,1666 7,789 1,1577 3,2365 -5,363 21,730 -48,1089 -45,283 -231,528 -463,687 -241,164 -543,165 -822,183 -1294,3 -2588,0 -3882,1 -231,4 -462,-11 -690,-46 -347,-49 -641,-291 -819,-584 -181,-305 -253,-661 -281,-1011 -28,-424 -35,-854 38,-1274 54,-302 165,-609 388,-828 181,-171 404,-306 652,-345 317,-47 638,-47 958,-45 848,-1 1697,1 2546,-1 -6,-156 0,-325 -85,-463 -79,-128 -197,-241 -347,-276 -254,-59 -516,-43 -775,-44 -953,0 -1906,-1 -2859,0 -22,-2 -66,-7 -88,-10 l 0,0 z m 2053,2495 c -89,123 -87,291 -53,433 45,166 226,237 383,239 436,4 871,2 1306,1 161,-2 359,-37 432,-200 57,-198 21,-408 31,-611 -554,-2 -1108,0 -1662,-1 -154,0 -330,14 -437,139 z"
         id="path15-4"
         inkscape:connector-curvature="0"
         style="fill:#004e9e" />
      <path
         style="fill:#004e9e"
         inkscape:connector-curvature="0"
         id="path17-8"
         d="m 8891,4910 c 266,-46 537,-49 807,-61 609,0 1217,0 1826,0 0,565 0,1130 0,1696 -398,6 -797,-18 -1193,25 -207,29 -424,63 -596,189 -287,206 -472,537 -528,883 -32,210 -56,422 -55,634 1,1030 0,2060 1,3090 -803,0 -1606,0 -2410,0 1,-1089 0,-2177 0,-3266 6,-441 -21,-885 55,-1322 87,-482 295,-965 680,-1285 393,-343 907,-500 1413,-583 z"
         class="fil0" />
      <path
         class="fil0"
         d="m 12184,6472 c 2,-542 -4,-1083 3,-1625 1488,6 2976,-2 4464,4 529,12 1061,198 1451,560 441,444 612,1089 615,1699 2,988 1,1976 0,2964 -17,269 -32,558 -191,788 -137,201 -334,373 -574,435 -253,58 -515,66 -775,69 -1116,0 -2233,0 -3349,0 -321,1 -644,2 -962,-47 -395,-50 -722,-348 -890,-698 -220,-453 -233,-969 -237,-1463 8,-456 43,-940 295,-1335 205,-298 542,-510 905,-537 283,-36 568,-25 853,-27 839,0 1677,1 2516,0 -1,-156 3,-325 -81,-464 -77,-131 -200,-243 -352,-275 -233,-51 -472,-50 -709,-48 -994,0 -1988,0 -2982,0 l 0,0 z m 2021,2502 c -69,123 -65,277 -32,411 52,163 233,230 391,227 446,0 892,3 1338,-1 147,-3 324,-55 379,-207 49,-193 18,-395 27,-592 -569,0 -1137,-1 -1706,0 -145,-2 -313,31 -397,162 z"
         id="path21-8"
         inkscape:connector-curvature="0"
         style="fill:#004e9e" />
      <path
         style="fill:#004e9e"
         inkscape:connector-curvature="0"
         id="path23-0"
         d="m 19193,4862 c 808,0 1615,0 2423,0 1,750 -2,1500 1,2250 7,85 2,187 73,248 106,64 236,50 355,57 572,1 1144,0 1716,1 9,-852 5,-1705 6,-2556 509,14 1022,-35 1528,42 302,39 560,247 713,503 131,214 146,472 160,716 2,965 0,1929 1,2894 16,639 -147,1322 -607,1788 -410,389 -982,570 -1540,570 -1462,5 -2924,-2 -4385,1 0,-543 -1,-1085 0,-1628 1038,0 2076,0 3114,0 189,3 381,-1 568,-42 177,-35 315,-174 392,-332 52,-128 49,-270 51,-405 -936,-1 -1872,0 -2808,-1 -267,-8 -539,-6 -800,-74 -315,-103 -601,-326 -743,-629 -182,-367 -210,-785 -218,-1188 0,-738 0,-1477 0,-2215 z"
         class="fil0" />
    </g>
  </g>
</svg>
